<?xml version="1.0" encoding="UTF-8"?>
<svg id="b" data-name="Слой 2" xmlns="http://www.w3.org/2000/svg" viewBox="0 0 483.682 481.692">
  <g id="c" data-name="Слой 1">
    <g>
      <path d="m298.045,27.339c.674,1.338.839,2.85.493,4.537-.51,2.49-1.852,4.239-4.024,5.244-2.173,1.006-5.014,1.149-8.521.431l-13.857-2.838,5.76-28.116,13.094,2.682c3.267.669,5.682,1.82,7.245,3.451,1.562,1.632,2.105,3.612,1.629,5.941-.285,1.393-.885,2.546-1.798,3.461-.913.916-2.062,1.552-3.446,1.91,1.609.86,2.752,1.959,3.427,3.297Zm-5.987,2.666c.478-2.33-.811-3.807-3.862-4.432l-7.15-1.464-1.456,7.109,7.149,1.464c3.053.625,4.826-.267,5.319-2.677Zm-10.083-10.436l6.065,1.242c1.419.291,2.549.223,3.391-.205.841-.427,1.376-1.204,1.606-2.329.225-1.098.029-2.017-.586-2.756-.616-.74-1.62-1.253-3.013-1.538l-6.064-1.242-1.399,6.828Z" stroke-width="0"/>
      <path d="m306.78,41.562c-1.796-2.036-2.936-4.347-3.42-6.932s-.236-5.197.742-7.836c.979-2.639,2.496-4.781,4.549-6.425s4.423-2.652,7.112-3.024,5.431-.041,8.224.995,5.082,2.57,6.864,4.602c1.783,2.032,2.923,4.342,3.42,6.932.497,2.589.256,5.205-.724,7.844-.979,2.64-2.501,4.779-4.566,6.417-2.066,1.639-4.438,2.647-7.113,3.024-2.677.378-5.411.048-8.204-.988-2.794-1.037-5.089-2.572-6.884-4.609Zm13.562-.194c1.553-.255,2.937-.901,4.151-1.937,1.216-1.036,2.132-2.386,2.75-4.052.618-1.666.804-3.288.559-4.866s-.874-2.97-1.884-4.175c-1.011-1.206-2.311-2.104-3.899-2.693s-3.159-.756-4.711-.501c-1.553.255-2.937.901-4.151,1.937-1.216,1.036-2.132,2.387-2.75,4.053-.618,1.666-.804,3.288-.559,4.866.245,1.578.873,2.969,1.884,4.175,1.011,1.206,2.31,2.103,3.899,2.692,1.588.589,3.158.757,4.711.502Z" stroke-width="0"/>
      <path d="m355.081,51.748c.251,1.519-.007,2.987-.773,4.406-.832,1.539-2.059,2.601-3.679,3.185-1.621.585-3.454.712-5.497.384-2.045-.329-4.089-1.045-6.133-2.149-1.731-.936-3.34-2.085-4.824-3.447-1.485-1.362-2.758-2.904-3.815-4.625l4.065-3.209c.741,1.271,1.686,2.442,2.832,3.512,1.146,1.07,2.355,1.949,3.631,2.639,1.731.936,3.336,1.4,4.816,1.392s2.525-.577,3.137-1.707c.507-.938.499-1.858-.021-2.762-.522-.903-1.456-1.719-2.803-2.447l-6.167-3.334,2.378-4.4,5.735,3.1c1.178.637,2.228.894,3.149.77.921-.123,1.608-.605,2.063-1.447.533-.986.474-2.012-.177-3.079-.651-1.066-1.722-2.003-3.213-2.809-1.105-.598-2.329-1.065-3.67-1.401-1.341-.336-2.703-.489-4.085-.46l.689-5.5c3.409.072,6.665.947,9.768,2.624,1.971,1.065,3.631,2.335,4.978,3.81,1.348,1.474,2.215,3.03,2.604,4.669.388,1.639.185,3.192-.607,4.659-.65,1.203-1.553,2.097-2.709,2.684-1.156.587-2.437.828-3.839.722,1.193,1.297,1.916,2.706,2.167,4.224Z" stroke-width="0"/>
      <path d="m381.877,64.76c.601,2.36.003,4.78-1.795,7.258-1.909,2.633-4.201,4.036-6.874,4.207-2.674.171-5.526-.842-8.558-3.04l-10.488-7.606,16.849-23.234,5.344,3.875-5.536,7.634,5.908,4.284c2.832,2.054,4.549,4.261,5.15,6.622Zm-10.621,5.567c1.282-.116,2.397-.827,3.345-2.132,1.748-2.412,1.141-4.693-1.824-6.843l-4.846-3.514-5.536,7.634,4.846,3.514c1.394,1.011,2.732,1.458,4.016,1.342Z" stroke-width="0"/>
      <path d="m395.599,100.896l12.149-12.146-15.984,3.989-2.082-2.093,3.837-15.732-11.945,11.885-4.396-4.417,20.346-20.243,3.875,3.895-5.066,20.194,20.104-5.081,3.875,3.895-20.316,20.272-4.396-4.418Z" stroke-width="0"/>
      <path d="m427.144,93.566l3.797,5.4-15.294,10.753,23.17.449,3.585,5.098-23.478,16.507-3.773-5.366,15.261-10.73-23.137-.472-3.608-5.131,23.478-16.508Z" stroke-width="0"/>
      <path d="m430.871,151.529c.255-2.703,1.158-5.115,2.711-7.238,1.553-2.123,3.626-3.73,6.22-4.824,2.595-1.093,5.193-1.455,7.797-1.083,2.604.371,4.961,1.409,7.074,3.114,2.112,1.705,3.748,3.93,4.905,6.675,1.157,2.745,1.605,5.463,1.346,8.154-.261,2.69-1.164,5.103-2.711,7.238-1.548,2.135-3.618,3.75-6.213,4.843-2.594,1.094-5.195,1.448-7.804,1.065-2.609-.384-4.968-1.421-7.075-3.114-2.107-1.692-3.739-3.912-4.896-6.657-1.157-2.746-1.609-5.469-1.354-8.172Zm9.428,9.752c1.248.957,2.666,1.523,4.254,1.7,1.587.176,3.198-.081,4.836-.771,1.637-.69,2.947-1.665,3.929-2.924.982-1.259,1.566-2.67,1.754-4.232.187-1.562-.049-3.124-.707-4.685-.658-1.562-1.611-2.821-2.86-3.778-1.249-.957-2.667-1.523-4.254-1.7s-3.199.081-4.836.771c-1.638.69-2.947,1.665-3.929,2.924-.982,1.259-1.567,2.67-1.754,4.232-.188,1.562.049,3.124.707,4.686.658,1.562,1.611,2.82,2.86,3.777Z" stroke-width="0"/>
      <path d="m467.698,192.965l-2.344-8.88-22.518,5.943-1.674-6.343,22.517-5.943-2.333-8.84,5.232-1.381,6.352,24.063-5.232,1.381Z" stroke-width="0"/>
      <path d="m477.892,237.416l-28.64,1.861-.428-6.587,23.239-1.51-.84-12.929-23.239,1.51-.428-6.587,28.64-1.861,1.695,26.103Z" stroke-width="0"/>
      <path d="m475.554,273.171l-28.593-2.479.566-6.535,23.201,2.012.851-9.803-5.946-.722c-4.046-.488-7.306-1.101-9.779-1.836-2.475-.736-4.333-1.769-5.575-3.097-1.243-1.329-1.771-3.083-1.581-5.261.078-.898.322-1.976.732-3.229l5.561.894c-.14.344-.229.734-.266,1.17-.137,1.579.699,2.763,2.511,3.552,1.811.787,4.697,1.436,8.659,1.944l11.564,1.414-1.905,21.976Z" stroke-width="0"/>
      <path d="m447.324,297.104l3.166-12.943-5.369-3.931,1.617-6.611,24.838,19.246-1.559,6.372-30.928,5.645,1.656-6.77,6.578-1.008Zm5.396-.833l11.755-1.809-9.592-7.032-2.163,8.841Z" stroke-width="0"/>
      <path d="m427.825,331.385l15.772,6.809-9.607-13.383,1.177-2.708,16.038-2.239-15.455-6.716,2.483-5.716,26.323,11.438-2.189,5.039-20.639,2.744,12.142,16.81-2.189,5.039-26.339-11.4,2.483-5.716Z" stroke-width="0"/>
      <path d="m414.634,363.855l-4.496-2.862,11.936-18.745,24.209,15.415-11.649,18.295-4.495-2.863,8.104-12.727-5.257-3.348-7.157,11.24-4.357-2.774,7.157-11.24-5.603-3.567-8.391,13.177Z" stroke-width="0"/>
      <path d="m412.225,403.241l-21.78-18.689,4.325-5.04,8.93,7.662,8.491-9.895-8.931-7.662,4.325-5.041,21.78,18.689-4.325,5.041-8.587-7.369-8.491,9.895,8.588,7.369-4.325,5.04Z" stroke-width="0"/>
      <path d="m404.708,410.744l-5.024,4.28-12.124-14.232,1.699,23.112-4.744,4.041-18.61-21.848,4.994-4.254,12.097,14.201-1.673-23.081,4.775-4.067,18.61,21.848Z" stroke-width="0"/>
      <path d="m336.551,438.21c-1.38-.584-2.484-1.63-3.313-3.14-1.223-2.229-1.331-4.43-.325-6.603s3.079-4.12,6.218-5.843l12.401-6.804,13.805,25.162-11.719,6.429c-2.923,1.604-5.509,2.289-7.756,2.058-2.248-.232-3.943-1.391-5.087-3.476-.684-1.246-.974-2.514-.87-3.802.104-1.289.567-2.518,1.392-3.687-1.783.386-3.365.287-4.745-.296Zm2.838-5.906c1.145,2.085,3.082,2.378,5.814.879l6.397-3.511-3.49-6.362-6.398,3.511c-2.731,1.499-3.506,3.326-2.323,5.483Zm14.44,1.431l-5.428,2.978c-1.27.696-2.087,1.479-2.451,2.351-.364.87-.271,1.809.281,2.814.539.982,1.283,1.557,2.231,1.723.948.165,2.046-.094,3.291-.777l5.428-2.978-3.353-6.11Z" stroke-width="0"/>
      <path d="m320.592,432.956c2.66.356,5.021,1.352,7.082,2.984,2.061,1.634,3.592,3.78,4.594,6.441,1.002,2.66,1.267,5.284.795,7.871-.471,2.587-1.589,4.892-3.354,6.914-1.764,2.023-4.028,3.555-6.791,4.595-2.327.877-4.586,1.26-6.773,1.149-2.188-.111-4.211-.693-6.068-1.746l2.604-5.186c2.606,1.413,5.252,1.614,7.938.603,1.663-.626,3.01-1.549,4.039-2.77,1.03-1.22,1.664-2.619,1.902-4.198.237-1.579.043-3.2-.583-4.863s-1.549-3.009-2.77-4.039c-1.22-1.03-2.62-1.664-4.199-1.901-1.579-.238-3.199-.044-4.862.582-2.686,1.012-4.537,2.92-5.554,5.728l-5.378-2.181c.692-2.042,1.83-3.829,3.414-5.36,1.586-1.531,3.542-2.735,5.869-3.611,2.737-1.031,5.437-1.368,8.097-1.012Z" stroke-width="0"/>
      <path d="m277.74,449.501l-1.19-5.195,21.662-4.961,6.406,27.977-21.143,4.841-1.189-5.195,14.707-3.368-1.391-6.074-12.989,2.974-1.152-5.035,12.988-2.975-1.482-6.475-15.227,3.487Z" stroke-width="0"/>
      <path d="m190.384,453.55c-.704-1.322-.903-2.83-.595-4.524.454-2.501,1.756-4.279,3.906-5.333,2.15-1.054,4.987-1.261,8.51-.621l13.917,2.528-5.13,28.238-13.15-2.39c-3.281-.596-5.721-1.692-7.32-3.288-1.599-1.597-2.186-3.564-1.761-5.904.254-1.398.828-2.565,1.72-3.5.893-.936,2.026-1.598,3.403-1.986-1.628-.824-2.794-1.897-3.499-3.22Zm16.239,7.409l-6.091-1.106c-1.425-.259-2.554-.166-3.385.281-.831.446-1.35,1.234-1.555,2.363-.2,1.103.016,2.017.648,2.743.632.726,1.647,1.216,3.045,1.47l6.091,1.107,1.246-6.858Zm-10.313-10.208c-.425,2.34.895,3.788,3.961,4.346l7.181,1.304,1.297-7.14-7.18-1.305c-3.066-.557-4.819.375-5.258,2.795Z" stroke-width="0"/>
      <path d="m181.324,439.524c1.841,1.995,3.032,4.28,3.574,6.854.542,2.573.353,5.19-.567,7.851-.919,2.661-2.388,4.836-4.403,6.525-2.015,1.689-4.363,2.75-7.043,3.183-2.68.433-5.428.162-8.244-.812-2.815-.974-5.138-2.456-6.965-4.447s-3.019-4.275-3.574-6.854c-.555-2.577-.372-5.197.547-7.857.92-2.661,2.395-4.833,4.423-6.519,2.029-1.685,4.376-2.745,7.043-3.183,2.667-.438,5.409-.168,8.225.805,2.816.974,5.145,2.458,6.985,4.454Zm-13.555.497c-1.546.29-2.916.967-4.107,2.029-1.192,1.062-2.078,2.434-2.659,4.113-.58,1.679-.73,3.305-.45,4.877.281,1.571.94,2.949,1.977,4.132,1.038,1.183,2.356,2.051,3.958,2.604,1.602.555,3.176.687,4.722.396,1.547-.289,2.915-.966,4.107-2.029,1.192-1.062,2.078-2.434,2.658-4.112.581-1.68.73-3.305.45-4.877-.28-1.572-.939-2.949-1.977-4.133-1.037-1.183-2.356-2.051-3.958-2.604-1.602-.554-3.175-.686-4.722-.396Z" stroke-width="0"/>
      <path d="m132.796,430.413c-.285-1.513-.06-2.986.675-4.422.798-1.557,2-2.646,3.607-3.266s3.437-.789,5.488-.506,4.11.954,6.178,2.013c1.751.897,3.385,2.011,4.9,3.339,1.515,1.329,2.821,2.843,3.917,4.54l-3.993,3.299c-.77-1.255-1.74-2.404-2.91-3.448-1.169-1.045-2.398-1.896-3.688-2.558-1.752-.896-3.367-1.325-4.847-1.284-1.479.04-2.512.632-3.098,1.776-.486.948-.458,1.868.083,2.76.542.892,1.494,1.687,2.855,2.384l6.24,3.196-2.28,4.452-5.802-2.972c-1.192-.61-2.247-.844-3.166-.7-.918.144-1.595.642-2.031,1.493-.511.997-.429,2.021.245,3.074.675,1.052,1.766,1.964,3.274,2.736,1.119.573,2.353,1.013,3.7,1.319,1.348.306,2.713.43,4.095.37l-.567,5.514c-3.411.003-6.685-.799-9.823-2.406-1.995-1.021-3.682-2.254-5.062-3.698-1.379-1.443-2.281-2.98-2.706-4.61-.424-1.63-.256-3.188.504-4.671.623-1.217,1.506-2.131,2.648-2.743,1.143-.612,2.417-.881,3.822-.807-1.222-1.271-1.976-2.663-2.261-4.175Z" stroke-width="0"/>
      <path d="m105.746,418.014c-.653-2.347-.109-4.779,1.633-7.296,1.851-2.676,4.111-4.128,6.779-4.358,2.669-.231,5.543.719,8.623,2.85l10.654,7.371-16.329,23.602-5.429-3.755,5.365-7.755-6.001-4.152c-2.877-1.99-4.643-4.159-5.296-6.506Zm10.495-5.802c-1.28.145-2.379.88-3.296,2.207-1.695,2.449-1.037,4.717,1.975,6.801l4.923,3.405,5.365-7.755-4.923-3.405c-1.416-.979-2.764-1.397-4.044-1.253Z" stroke-width="0"/>
      <path d="m91.216,382.179l-11.878,12.411,15.893-4.342,2.128,2.047-3.489,15.813,11.68-12.146,4.492,4.319-19.893,20.688-3.96-3.809,4.619-20.301-19.987,5.523-3.96-3.809,19.864-20.715,4.492,4.319Z" stroke-width="0"/>
      <path d="m59.851,390.215l-3.916-5.313,15.051-11.091-23.174.065-3.697-5.017,23.105-17.024,3.892,5.281-15.019,11.065,23.142-.041,3.721,5.05-23.105,17.024Z" stroke-width="0"/>
      <path d="m54.833,332.348c-.194,2.708-1.043,5.14-2.548,7.297-1.504,2.156-3.541,3.811-6.11,4.962-2.569,1.151-5.159,1.57-7.771,1.258s-4.991-1.297-7.142-2.954c-2.15-1.657-3.834-3.846-5.053-6.564-1.218-2.719-1.727-5.426-1.527-8.121.2-2.696,1.049-5.128,2.548-7.298,1.499-2.169,3.533-3.829,6.102-4.98,2.569-1.151,5.162-1.564,7.779-1.239s4.998,1.31,7.142,2.955c2.146,1.645,3.827,3.826,5.045,6.545s1.73,5.433,1.536,8.141Zm-9.643-9.539c-1.27-.929-2.7-1.464-4.291-1.604-1.591-.141-3.196.151-4.818.878-1.621.727-2.909,1.73-3.862,3.012s-1.506,2.704-1.658,4.27c-.152,1.566.119,3.122.812,4.669s1.674,2.784,2.944,3.713c1.27.929,2.7,1.463,4.291,1.604,1.591.141,3.197-.151,4.818-.878,1.622-.727,2.909-1.73,3.862-3.012.954-1.28,1.506-2.704,1.658-4.27.152-1.565-.118-3.122-.812-4.669-.693-1.546-1.674-2.783-2.944-3.712Z" stroke-width="0"/>
      <path d="m17.089,291.754l2.542,8.825,22.378-6.447,1.816,6.304-22.377,6.447,2.531,8.786-5.201,1.498-6.89-23.914,5.2-1.499Z" stroke-width="0"/>
      <path d="m5.907,247.511l28.592-2.491.573,6.576-23.2,2.021,1.125,12.907,23.2-2.021.573,6.576-28.592,2.491-2.271-26.06Z" stroke-width="0"/>
      <path d="m7.463,211.712l28.641,1.85-.423,6.546-23.24-1.5-.634,9.819,5.96.59c4.056.399,7.328.939,9.817,1.62,2.49.681,4.37,1.672,5.642,2.973,1.272,1.301,1.837,3.042,1.696,5.225-.058.9-.279,1.981-.661,3.244l-5.579-.771c.132-.347.212-.739.24-1.176.102-1.582-.76-2.747-2.588-3.495-1.828-.748-4.728-1.332-8.7-1.753l-11.593-1.16,1.421-22.012Z" stroke-width="0"/>
      <path d="m35.145,187.188l-2.875,13.011,5.457,3.809-1.469,6.646-25.264-18.684,1.416-6.405,30.793-6.338-1.504,6.806-6.554,1.155Zm-5.375.954l-11.711,2.073,9.747,6.815,1.964-8.888Z" stroke-width="0"/>
      <path d="m53.872,152.471l-15.921-6.454,9.905,13.165-1.115,2.733-15.984,2.599,15.602,6.368-2.355,5.77-26.572-10.845,2.076-5.087,20.572-3.206-12.516-16.533,2.076-5.086,26.587,10.807-2.355,5.77Z" stroke-width="0"/>
      <path d="m66.338,119.709l4.558,2.762-11.516,19.005-24.546-14.873,11.24-18.549,4.558,2.762-7.819,12.904,5.33,3.229,6.905-11.396,4.418,2.677-6.905,11.396,5.681,3.442,8.095-13.359Z" stroke-width="0"/>
      <path d="m67.894,80.262l22.187,18.206-4.213,5.134-9.096-7.464-8.271,10.079,9.097,7.464-4.213,5.135-22.187-18.206,4.213-5.134,8.748,7.178,8.271-10.079-8.748-7.178,4.213-5.135Z" stroke-width="0"/>
      <path d="m75.229,72.61l4.93-4.39,12.435,13.961-2.209-23.069,4.654-4.145,19.089,21.432-4.899,4.363-12.408-13.93,2.182,23.038-4.685,4.172-19.089-21.432Z" stroke-width="0"/>
      <path d="m142.784,43.628c1.393.553,2.52,1.575,3.381,3.066,1.271,2.201,1.429,4.399.471,6.593-.958,2.195-2.986,4.188-6.087,5.979l-12.248,7.076-14.358-24.85,11.573-6.687c2.887-1.668,5.457-2.411,7.709-2.229,2.252.183,3.973,1.303,5.163,3.362.711,1.231,1.029,2.492.954,3.782-.075,1.291-.512,2.529-1.31,3.716,1.774-.425,3.358-.361,4.751.191Zm-17.176,4.857l5.36-3.097c1.254-.725,2.054-1.526,2.399-2.404.345-.878.23-1.814-.344-2.808-.561-.97-1.317-1.527-2.269-1.672-.952-.144-2.043.139-3.273.85l-5.361,3.097,3.487,6.035Zm14.468,1.111c-1.189-2.059-3.134-2.309-5.832-.75l-6.319,3.651,3.631,6.284,6.319-3.651c2.698-1.559,3.432-3.403,2.201-5.533Z" stroke-width="0"/>
      <path d="m158.828,48.539c-2.668-.296-5.05-1.238-7.147-2.825-2.097-1.587-3.676-3.699-4.737-6.336-1.061-2.637-1.385-5.254-.972-7.852.414-2.597,1.48-4.926,3.199-6.988,1.719-2.062,3.948-3.644,6.687-4.746,2.307-.928,4.557-1.361,6.747-1.3,2.19.062,4.225.598,6.105,1.609l-2.487,5.243c-2.637-1.354-5.287-1.497-7.949-.426-1.648.663-2.974,1.616-3.976,2.859-1.002,1.243-1.605,2.656-1.807,4.24-.203,1.584.028,3.201.691,4.849.664,1.648,1.616,2.974,2.859,3.976s2.656,1.605,4.241,1.807c1.584.203,3.2-.028,4.848-.691,2.663-1.071,4.471-3.021,5.424-5.851l5.425,2.06c-.646,2.057-1.743,3.869-3.293,5.435-1.551,1.566-3.479,2.814-5.787,3.742-2.714,1.092-5.404,1.489-8.072,1.192Z" stroke-width="0"/>
      <path d="m201.287,31.041l1.306,5.167-21.544,5.445-7.032-27.825,21.028-5.314,1.306,5.167-14.628,3.697,1.527,6.042,12.919-3.265,1.266,5.009-12.919,3.265,1.627,6.44,15.145-3.828Z" stroke-width="0"/>
    </g>
  </g>
</svg>